# Blender v2.79 (sub 7) OBJ File: 'table_simple.blend'
# www.blender.org
mtllib table_simple.mtl
o Cube.004_Cube.005
v 1.850387 -0.330417 -0.649407
v 1.796837 0.981849 -0.595857
v 1.850387 -0.330417 -0.757455
v 1.796837 0.981849 -0.811005
v 1.958435 -0.330417 -0.649407
v 2.011985 0.981849 -0.595857
v 1.958435 -0.330417 -0.757455
v 2.011985 0.981849 -0.811005
v 1.850387 -0.330417 0.751736
v 1.796837 0.981849 0.805286
v 1.850387 -0.330417 0.643688
v 1.796837 0.981849 0.590138
v 1.958435 -0.330417 0.751736
v 2.011985 0.981849 0.805286
v 1.958435 -0.330417 0.643688
v 2.011985 0.981849 0.590138
v -1.952716 -0.341855 0.751736
v -2.006266 0.970411 0.805286
v -1.952716 -0.341855 0.643688
v -2.006266 0.970411 0.590138
v -1.844667 -0.341855 0.751736
v -1.791118 0.970411 0.805286
v -1.844667 -0.341855 0.643688
v -1.791118 0.970411 0.590138
v -1.952716 -0.330417 -0.643688
v -2.006266 0.981849 -0.590138
v -1.952716 -0.330417 -0.751736
v -2.006266 0.981849 -0.805286
v -1.844667 -0.330417 -0.643688
v -1.791118 0.981849 -0.590138
v -1.844667 -0.330417 -0.751736
v -1.791118 0.981849 -0.805286
v -2.208931 0.979697 1.000000
v -2.208931 1.081295 1.000000
v -2.208931 0.979697 -1.000000
v -2.208931 1.081295 -1.000000
v 2.208931 0.979697 1.000000
v 2.208931 1.081295 1.000000
v 2.208931 0.979697 -1.000000
v 2.208931 1.081295 -1.000000
vt 1.000000 1.000000
vt 0.000006 1.000000
vt 0.000000 0.000000
vt 0.999994 0.000000
vt 0.000000 0.000000
vt 0.000000 0.000000
vt 0.000000 0.000000
vt 0.000000 0.000000
vt 0.000000 0.000000
vt 0.000000 0.000000
vt 0.000000 0.000000
vt 0.000000 0.000000
vt 0.000000 0.000000
vt 0.000000 0.000000
vt 0.000000 0.000000
vt 0.000000 0.000000
vt 0.000000 0.000000
vt 0.000000 0.000000
vt 0.000000 0.000000
vt 0.000000 0.000000
vt 0.000000 0.000000
vt 0.000000 0.000000
vt 0.000000 0.000000
vt 0.000000 0.000000
vt 0.000000 0.000000
vt 0.000000 0.000000
vt 0.000000 0.000000
vt 0.000000 0.000000
vt 0.000000 0.000000
vt 0.000000 0.000000
vt 0.000000 0.000000
vt 0.000000 0.000000
vt 0.000000 0.000000
vt 0.000000 0.000000
vt 0.000000 0.000000
vt 0.000000 0.000000
vt 0.056545 0.848758
vt 0.056545 0.515825
vt 0.094496 0.515825
vt 0.094496 0.848759
vt 0.126639 0.946231
vt 0.126639 0.892311
vt 0.894195 0.892311
vt 0.894195 0.946231
vt 0.895679 0.435957
vt 0.895679 0.485918
vt 0.117341 0.485918
vt 0.117341 0.435957
vt 0.867884 0.395634
vt 0.108678 0.395634
vt 0.108678 0.062700
vt 0.867884 0.062700
vt 0.889220 0.856571
vt 0.115988 0.856571
vt 0.115988 0.523637
vt 0.889220 0.523637
vn 1.0000 0.0000 0.0000
vn -0.9992 -0.0408 0.0000
vn 0.0000 -0.0408 -0.9992
vn 0.9992 -0.0408 0.0000
vn 0.0000 -0.0408 0.9992
vn 0.0000 -1.0000 0.0000
vn -1.0000 0.0000 0.0000
vn 0.0000 0.0000 -1.0000
vn 0.0000 0.0000 1.0000
vn 0.0000 1.0000 0.0000
usemtl None
s off
f 39/1/1 40/2/1 38/3/1 37/4/1
usemtl None_NONE
f 1/5/2 2/6/2 4/7/2 3/8/2
f 3/8/3 4/7/3 8/9/3 7/10/3
f 7/10/4 8/9/4 6/11/4 5/12/4
f 5/12/5 6/11/5 2/6/5 1/5/5
f 3/8/6 7/10/6 5/12/6 1/5/6
f 9/13/2 10/14/2 12/15/2 11/16/2
f 11/16/3 12/15/3 16/17/3 15/18/3
f 15/18/4 16/17/4 14/19/4 13/20/4
f 13/20/5 14/19/5 10/14/5 9/13/5
f 11/16/6 15/18/6 13/20/6 9/13/6
f 17/21/2 18/22/2 20/23/2 19/24/2
f 19/24/3 20/23/3 24/25/3 23/26/3
f 23/26/4 24/25/4 22/27/4 21/28/4
f 21/28/5 22/27/5 18/22/5 17/21/5
f 19/24/6 23/26/6 21/28/6 17/21/6
f 25/29/2 26/30/2 28/31/2 27/32/2
f 27/32/3 28/31/3 32/33/3 31/34/3
f 31/34/4 32/33/4 30/35/4 29/36/4
f 29/36/5 30/35/5 26/30/5 25/29/5
f 27/32/6 31/34/6 29/36/6 25/29/6
f 33/37/7 34/38/7 36/39/7 35/40/7
f 35/41/8 36/42/8 40/43/8 39/44/8
f 37/45/9 38/46/9 34/47/9 33/48/9
f 35/49/6 39/50/6 37/51/6 33/52/6
f 40/53/10 36/54/10 34/55/10 38/56/10
